<svg width="165" height="53" viewBox="0 0 165 53" fill="none" xmlns="http://www.w3.org/2000/svg">
<path d="M1.74893 17.7635C52.3447 17.7635 102.941 17.7635 153.536 17.7635C156.504 17.7635 159.472 17.7635 162.441 17.7635C165.747 17.7635 163.027 17.2534 161.317 16.8481C131.38 9.7523 100.261 6.9751 69.6122 5.23935C64.9548 4.97558 58.1608 4.74412 53.1353 4.65683C52.8706 4.65223 49.8859 4.40422 49.2033 4.71924C48.4469 5.06837 48.9329 8.72962 48.9329 9.4418C48.9329 10.1896 49.1706 11.4332 48.8496 12.1463C48.6547 12.5794 48.0461 12.3463 47.8926 12.6872C47.1835 14.2631 48.3164 19.5339 48.5792 17.8259C48.7768 16.5414 48.766 11.6253 50.3475 15.1838C51.3627 17.4679 51.7432 20.0355 52.4488 22.4236C53.2055 24.9848 54.5375 20.7824 54.9037 19.9687C55.8643 17.8339 56.7263 15.6142 57.5874 13.4362C57.9232 12.5868 58.1803 11.0334 58.9605 12.6872C59.0911 12.9641 59.5944 15.6681 59.6678 15.6414C60.7477 15.2487 61.8547 11.3924 62.3724 10.3572C62.4732 10.1555 63.1645 8.26983 63.5374 9.19215C64.4312 11.403 64.8725 14.208 65.2433 16.5568C65.7506 19.7696 65.508 18.738 66.2003 16.6609C66.5149 15.7172 69.9708 16.9842 70.4444 17.0977C74.0558 17.9636 78.0049 19.0619 81.7203 18.0963C87.3421 16.6353 90.6658 11.0828 90.8533 5.55141C90.8645 5.22123 91.1372 1.17827 90.6245 1.16172C88.6818 1.09906 86.5956 8.26879 86.0475 9.64984C81.5655 20.9447 79.8684 33.2584 77.0809 45.0586C76.5394 47.3511 76.4961 50.2839 75.6038 52.4649C75.2886 53.2355 75.5206 50.801 75.5206 49.9684" stroke="#080808" stroke-width="0.374476" stroke-linecap="round"/>
<path d="M100.61 33.8659C74.6469 33.8659 48.6832 33.8659 22.7196 33.8659C19.1343 33.8659 8.37855 33.8659 11.9638 33.8659C15.3055 33.8659 18.634 34.0887 21.9706 34.2404" stroke="#080808" stroke-width="0.374476" stroke-linecap="round"/>
<path d="M1 41.3554H65.0353" stroke="#080808" stroke-width="0.374476" stroke-linecap="round"/>
</svg>
